ffmpeg started on 2026-01-16 at 16:30:39
Report written to "D:\Convert\FFMetrics\reports\psnr_report-6.txt"
Log level: 32
Command line:
ffmpeg -hide_banner -nostdin -r 24000/1001 -i "F:\\Convert\\files\\[DC] Make Heroine ga Oosugiru - 07_Telegram_HEVC(HB-2).mkv" -r 24000/1001 -i "F:\\Convert\\files\\[DC] Make Heroine ga Oosugiru - 07_Telegram.mp4" -lavfi "[0:v]settb=AVTB,setpts=PTS-STARTPTS,format=pix_fmts=yuv420p10le,fps=24000/1001,scale=1920:1080:flags=lanczos:param0=3:out_range=limited:out_color_matrix=bt709:out_chroma_loc=left,setsar=1/1,setdar=(1920/1080)*(1/1),colorspace=format=yuv420p10:range=tv:primaries=bt709:trc=bt709:space=bt709:fast=0[main];[1:v]settb=AVTB,setpts=PTS-STARTPTS,format=pix_fmts=yuv420p,fps=24000/1001,scale=1920:1080:flags=lanczos:param0=3:out_range=limited:out_color_matrix=bt709:out_chroma_loc=left,setsar=1.000,setdar=1.778,colorspace=format=yuv420p:range=tv:primaries=bt709:trc=bt709:space=bt709:fast=0[ref];[main][ref]psnr=eof_action=endall:stats_file='D\\:/Convert/FFMetrics/logs/psnr_logfile-6.txt'" -f null -
Input #0, matroska,webm, from 'F:\Convert\files\[DC] Make Heroine ga Oosugiru - 07_Telegram_HEVC(HB-2).mkv':
  Metadata:
    creation_time   : 2026-01-16T07:08:09.000000Z
    ENCODER         : Lavf61.7.100
  Duration: 00:24:06.81, start: -0.021000, bitrate: 971 kb/s
  Stream #0:0: Video: hevc (Main 10), yuv420p10le(tv, bt709), 1920x1080 [SAR 1:1 DAR 16:9], 23.98 fps, 23.98 tbr, 1k tbn (default)
      Metadata:
        BPS             : 774350
        DURATION        : 00:24:06.569708333
        NUMBER_OF_FRAMES: 34683
        NUMBER_OF_BYTES : 140018903
        _STATISTICS_WRITING_APP: mkvpropedit v94.0 ('Initiate') 64-bit
        _STATISTICS_WRITING_DATE_UTC: 2026-01-16 13:30:39
        _STATISTICS_TAGS: BPS DURATION NUMBER_OF_FRAMES NUMBER_OF_BYTES
  Stream #0:1: Audio: aac (LC), 48000 Hz, stereo, fltp (default)
      Metadata:
        title           : Stereo
        BPS             : 193190
        DURATION        : 00:24:06.784000000
        NUMBER_OF_FRAMES: 67819
        NUMBER_OF_BYTES : 34938166
        _STATISTICS_WRITING_APP: mkvpropedit v94.0 ('Initiate') 64-bit
        _STATISTICS_WRITING_DATE_UTC: 2026-01-16 13:30:39
        _STATISTICS_TAGS: BPS DURATION NUMBER_OF_FRAMES NUMBER_OF_BYTES
Input #1, mov,mp4,m4a,3gp,3g2,mj2, from 'F:\Convert\files\[DC] Make Heroine ga Oosugiru - 07_Telegram.mp4':
  Metadata:
    major_brand     : isom
    minor_version   : 512
    compatible_brands: isomiso2avc1mp41
    encoder         : Lavf60.16.100
  Duration: 00:24:06.74, start: 0.000000, bitrate: 3764 kb/s
  Stream #1:0[0x1](und): Video: h264 (High) (avc1 / 0x31637661), yuv420p(tv, bt709, progressive), 1920x1080 [SAR 1:1 DAR 16:9], 3616 kb/s, 23.98 fps, 23.98 tbr, 24k tbn (default)
      Metadata:
        handler_name    : VideoHandler
        vendor_id       : [0][0][0][0]
        encoder         : Lavc60.31.102 h264_qsv
  Stream #1:1[0x2](und): Audio: aac (HE-AACv2) (mp4a / 0x6134706D), 48000 Hz, stereo, fltp, 144 kb/s (default)
      Metadata:
        handler_name    : SoundHandler
        vendor_id       : [0][0][0][0]
Stream mapping:
  Stream #0:0 (hevc) -> settb:default
  Stream #1:0 (h264) -> settb:default
  psnr:default -> Stream #0:0 (wrapped_avframe)
  Stream #0:1 -> #0:1 (aac (native) -> pcm_s16le (native))
Output #0, null, to 'pipe:':
  Metadata:
    encoder         : Lavf61.7.100
  Stream #0:0: Video: wrapped_avframe, yuv420p10le(tv, bt709, progressive), 1920x1080 [SAR 1:1 DAR 16:9], q=2-31, 200 kb/s, 23.98 fps, 23.98 tbn
      Metadata:
        encoder         : Lavc61.19.100 wrapped_avframe
  Stream #0:1: Audio: pcm_s16le, 48000 Hz, stereo, s16, 1536 kb/s (default)
      Metadata:
        title           : Stereo
        BPS             : 193190
        DURATION        : 00:24:06.784000000
        NUMBER_OF_FRAMES: 67819
        NUMBER_OF_BYTES : 34938166
        _STATISTICS_WRITING_APP: mkvpropedit v94.0 ('Initiate') 64-bit
        _STATISTICS_WRITING_DATE_UTC: 2026-01-16 13:30:39
        _STATISTICS_TAGS: BPS DURATION NUMBER_OF_FRAMES NUMBER_OF_BYTES
        encoder         : Lavc61.19.100 pcm_s16le
frame=  135 fps=0.0 q=-0.0 size=N/A time=00:00:05.63 bitrate=N/A speed=10.9x    frame=  339 fps=325 q=-0.0 size=N/A time=00:00:14.13 bitrate=N/A speed=13.6x    frame=  537 fps=346 q=-0.0 size=N/A time=00:00:22.39 bitrate=N/A speed=14.4x    frame=  734 fps=355 q=-0.0 size=N/A time=00:00:30.61 bitrate=N/A speed=14.8x    frame=  907 fps=352 q=-0.0 size=N/A time=00:00:37.82 bitrate=N/A speed=14.7x    frame= 1049 fps=339 q=-0.0 size=N/A time=00:00:43.75 bitrate=N/A speed=14.2x    frame= 1214 fps=336 q=-0.0 size=N/A time=00:00:50.63 bitrate=N/A speed=  14x    frame= 1377 fps=334 q=-0.0 size=N/A time=00:00:57.43 bitrate=N/A speed=13.9x    frame= 1533 fps=331 q=-0.0 size=N/A time=00:01:03.93 bitrate=N/A speed=13.8x    frame= 1679 fps=325 q=-0.0 size=N/A time=00:01:10.02 bitrate=N/A speed=13.6x    frame= 1849 fps=326 q=-0.0 size=N/A time=00:01:17.11 bitrate=N/A speed=13.6x    frame= 2023 fps=327 q=-0.0 size=N/A time=00:01:24.37 bitrate=N/A speed=13.6x    frame= 2120 fps=316 q=-0.0 size=N/A time=00:01:28.42 bitrate=N/A speed=13.2x    frame= 2280 fps=315 q=-0.0 size=N/A time=00:01:35.09 bitrate=N/A speed=13.2x    frame= 2428 fps=314 q=-0.0 size=N/A time=00:01:41.26 bitrate=N/A speed=13.1x    frame= 2559 fps=310 q=-0.0 size=N/A time=00:01:46.73 bitrate=N/A speed=12.9x    frame= 2733 fps=312 q=-0.0 size=N/A time=00:01:53.98 bitrate=N/A speed=  13x    frame= 2914 fps=314 q=-0.0 size=N/A time=00:02:01.53 bitrate=N/A speed=13.1x    frame= 3104 fps=317 q=-0.0 size=N/A time=00:02:09.46 bitrate=N/A speed=13.2x    frame= 3299 fps=320 q=-0.0 size=N/A time=00:02:17.59 bitrate=N/A speed=13.3x    frame= 3498 fps=323 q=-0.0 size=N/A time=00:02:25.89 bitrate=N/A speed=13.5x    frame= 3703 fps=326 q=-0.0 size=N/A time=00:02:34.44 bitrate=N/A speed=13.6x    frame= 3895 fps=328 q=-0.0 size=N/A time=00:02:42.45 bitrate=N/A speed=13.7x    frame= 4096 fps=331 q=-0.0 size=N/A time=00:02:50.83 bitrate=N/A speed=13.8x    frame= 4290 fps=333 q=-0.0 size=N/A time=00:02:58.92 bitrate=N/A speed=13.9x    frame= 4488 fps=335 q=-0.0 size=N/A time=00:03:07.18 bitrate=N/A speed=  14x    frame= 4692 fps=337 q=-0.0 size=N/A time=00:03:15.69 bitrate=N/A speed=  14x    frame= 4887 fps=338 q=-0.0 size=N/A time=00:03:23.82 bitrate=N/A speed=14.1x    frame= 5090 fps=340 q=-0.0 size=N/A time=00:03:32.29 bitrate=N/A speed=14.2x    frame= 5288 fps=342 q=-0.0 size=N/A time=00:03:40.55 bitrate=N/A speed=14.2x    frame= 5485 fps=343 q=-0.0 size=N/A time=00:03:48.77 bitrate=N/A speed=14.3x    frame= 5684 fps=344 q=-0.0 size=N/A time=00:03:57.07 bitrate=N/A speed=14.4x    frame= 5878 fps=346 q=-0.0 size=N/A time=00:04:05.16 bitrate=N/A speed=14.4x    frame= 6083 fps=347 q=-0.0 size=N/A time=00:04:13.71 bitrate=N/A speed=14.5x    frame= 6281 fps=348 q=-0.0 size=N/A time=00:04:21.97 bitrate=N/A speed=14.5x    frame= 6473 fps=349 q=-0.0 size=N/A time=00:04:29.97 bitrate=N/A speed=14.5x    frame= 6679 fps=350 q=-0.0 size=N/A time=00:04:38.56 bitrate=N/A speed=14.6x    frame= 6883 fps=351 q=-0.0 size=N/A time=00:04:47.07 bitrate=N/A speed=14.6x    frame= 7080 fps=352 q=-0.0 size=N/A time=00:04:55.29 bitrate=N/A speed=14.7x    frame= 7272 fps=352 q=-0.0 size=N/A time=00:05:03.30 bitrate=N/A speed=14.7x    frame= 7472 fps=353 q=-0.0 size=N/A time=00:05:11.64 bitrate=N/A speed=14.7x    frame= 7658 fps=353 q=-0.0 size=N/A time=00:05:19.40 bitrate=N/A speed=14.7x    frame= 7851 fps=354 q=-0.0 size=N/A time=00:05:27.45 bitrate=N/A speed=14.8x    frame= 8047 fps=354 q=-0.0 size=N/A time=00:05:35.62 bitrate=N/A speed=14.8x    frame= 8245 fps=355 q=-0.0 size=N/A time=00:05:43.88 bitrate=N/A speed=14.8x    frame= 8438 fps=355 q=-0.0 size=N/A time=00:05:51.93 bitrate=N/A speed=14.8x    frame= 8634 fps=356 q=-0.0 size=N/A time=00:06:00.10 bitrate=N/A speed=14.8x    frame= 8819 fps=356 q=-0.0 size=N/A time=00:06:07.82 bitrate=N/A speed=14.9x    frame= 9024 fps=357 q=-0.0 size=N/A time=00:06:16.37 bitrate=N/A speed=14.9x    frame= 9222 fps=357 q=-0.0 size=N/A time=00:06:24.63 bitrate=N/A speed=14.9x    frame= 9411 fps=358 q=-0.0 size=N/A time=00:06:32.51 bitrate=N/A speed=14.9x    frame= 9613 fps=358 q=-0.0 size=N/A time=00:06:40.94 bitrate=N/A speed=14.9x    frame= 9798 fps=358 q=-0.0 size=N/A time=00:06:48.65 bitrate=N/A speed=14.9x    frame= 9986 fps=358 q=-0.0 size=N/A time=00:06:56.49 bitrate=N/A speed=14.9x    frame=10175 fps=358 q=-0.0 size=N/A time=00:07:04.38 bitrate=N/A speed=  15x    frame=10359 fps=359 q=-0.0 size=N/A time=00:07:12.05 bitrate=N/A speed=  15x    frame=10527 fps=358 q=-0.0 size=N/A time=00:07:19.06 bitrate=N/A speed=14.9x    frame=10697 fps=357 q=-0.0 size=N/A time=00:07:26.15 bitrate=N/A speed=14.9x    frame=10870 fps=357 q=-0.0 size=N/A time=00:07:33.36 bitrate=N/A speed=14.9x    frame=11055 fps=357 q=-0.0 size=N/A time=00:07:41.08 bitrate=N/A speed=14.9x    frame=11237 fps=357 q=-0.0 size=N/A time=00:07:48.67 bitrate=N/A speed=14.9x    frame=11431 fps=357 q=-0.0 size=N/A time=00:07:56.76 bitrate=N/A speed=14.9x    frame=11621 fps=357 q=-0.0 size=N/A time=00:08:04.69 bitrate=N/A speed=14.9x    frame=11810 fps=358 q=-0.0 size=N/A time=00:08:12.57 bitrate=N/A speed=14.9x    frame=11991 fps=357 q=-0.0 size=N/A time=00:08:20.12 bitrate=N/A speed=14.9x    frame=12182 fps=358 q=-0.0 size=N/A time=00:08:28.09 bitrate=N/A speed=14.9x    frame=12369 fps=358 q=-0.0 size=N/A time=00:08:35.89 bitrate=N/A speed=14.9x    frame=12571 fps=358 q=-0.0 size=N/A time=00:08:44.31 bitrate=N/A speed=14.9x    frame=12758 fps=358 q=-0.0 size=N/A time=00:08:52.11 bitrate=N/A speed=14.9x    frame=12957 fps=359 q=-0.0 size=N/A time=00:09:00.41 bitrate=N/A speed=  15x    frame=13152 fps=359 q=-0.0 size=N/A time=00:09:08.54 bitrate=N/A speed=  15x    frame=13340 fps=359 q=-0.0 size=N/A time=00:09:16.38 bitrate=N/A speed=  15x    frame=13527 fps=359 q=-0.0 size=N/A time=00:09:24.18 bitrate=N/A speed=  15x    frame=13713 fps=359 q=-0.0 size=N/A time=00:09:31.94 bitrate=N/A speed=  15x    frame=13897 fps=359 q=-0.0 size=N/A time=00:09:39.62 bitrate=N/A speed=  15x    frame=14090 fps=359 q=-0.0 size=N/A time=00:09:47.67 bitrate=N/A speed=  15x    frame=14277 fps=359 q=-0.0 size=N/A time=00:09:55.46 bitrate=N/A speed=  15x    frame=14461 fps=359 q=-0.0 size=N/A time=00:10:03.14 bitrate=N/A speed=  15x    frame=14656 fps=359 q=-0.0 size=N/A time=00:10:11.27 bitrate=N/A speed=  15x    frame=14851 fps=360 q=-0.0 size=N/A time=00:10:19.41 bitrate=N/A speed=  15x    frame=15043 fps=360 q=-0.0 size=N/A time=00:10:27.41 bitrate=N/A speed=  15x    frame=15203 fps=359 q=-0.0 size=N/A time=00:10:34.09 bitrate=N/A speed=  15x    frame=15399 fps=359 q=-0.0 size=N/A time=00:10:42.26 bitrate=N/A speed=  15x    frame=15594 fps=360 q=-0.0 size=N/A time=00:10:50.39 bitrate=N/A speed=  15x    frame=15782 fps=360 q=-0.0 size=N/A time=00:10:58.24 bitrate=N/A speed=  15x    frame=15984 fps=360 q=-0.0 size=N/A time=00:11:06.66 bitrate=N/A speed=  15x    frame=16171 fps=360 q=-0.0 size=N/A time=00:11:14.46 bitrate=N/A speed=  15x    frame=16365 fps=360 q=-0.0 size=N/A time=00:11:22.55 bitrate=N/A speed=  15x    frame=16560 fps=361 q=-0.0 size=N/A time=00:11:30.69 bitrate=N/A speed=  15x    frame=16763 fps=361 q=-0.0 size=N/A time=00:11:39.15 bitrate=N/A speed=15.1x    frame=16964 fps=361 q=-0.0 size=N/A time=00:11:47.54 bitrate=N/A speed=15.1x    frame=17164 fps=362 q=-0.0 size=N/A time=00:11:55.88 bitrate=N/A speed=15.1x    frame=17361 fps=362 q=-0.0 size=N/A time=00:12:04.09 bitrate=N/A speed=15.1x    frame=17555 fps=362 q=-0.0 size=N/A time=00:12:12.18 bitrate=N/A speed=15.1x    frame=17743 fps=362 q=-0.0 size=N/A time=00:12:20.03 bitrate=N/A speed=15.1x    frame=17928 fps=362 q=-0.0 size=N/A time=00:12:27.74 bitrate=N/A speed=15.1x    frame=18126 fps=362 q=-0.0 size=N/A time=00:12:36.00 bitrate=N/A speed=15.1x    frame=18318 fps=362 q=-0.0 size=N/A time=00:12:44.01 bitrate=N/A speed=15.1x    frame=18509 fps=362 q=-0.0 size=N/A time=00:12:51.97 bitrate=N/A speed=15.1x    frame=18705 fps=363 q=-0.0 size=N/A time=00:13:00.15 bitrate=N/A speed=15.1x    frame=18906 fps=363 q=-0.0 size=N/A time=00:13:08.53 bitrate=N/A speed=15.1x    frame=19110 fps=363 q=-0.0 size=N/A time=00:13:17.04 bitrate=N/A speed=15.1x    frame=19305 fps=363 q=-0.0 size=N/A time=00:13:25.17 bitrate=N/A speed=15.1x    frame=19491 fps=363 q=-0.0 size=N/A time=00:13:32.93 bitrate=N/A speed=15.1x    frame=19687 fps=363 q=-0.0 size=N/A time=00:13:41.11 bitrate=N/A speed=15.2x    frame=19890 fps=364 q=-0.0 size=N/A time=00:13:49.57 bitrate=N/A speed=15.2x    frame=20090 fps=364 q=-0.0 size=N/A time=00:13:57.92 bitrate=N/A speed=15.2x    frame=20285 fps=364 q=-0.0 size=N/A time=00:14:06.05 bitrate=N/A speed=15.2x    frame=20477 fps=364 q=-0.0 size=N/A time=00:14:14.06 bitrate=N/A speed=15.2x    frame=20664 fps=364 q=-0.0 size=N/A time=00:14:21.86 bitrate=N/A speed=15.2x    frame=20858 fps=364 q=-0.0 size=N/A time=00:14:29.95 bitrate=N/A speed=15.2x    frame=21057 fps=364 q=-0.0 size=N/A time=00:14:38.25 bitrate=N/A speed=15.2x    frame=21240 fps=364 q=-0.0 size=N/A time=00:14:45.88 bitrate=N/A speed=15.2x    frame=21434 fps=364 q=-0.0 size=N/A time=00:14:53.97 bitrate=N/A speed=15.2x    frame=21640 fps=365 q=-0.0 size=N/A time=00:15:02.56 bitrate=N/A speed=15.2x    frame=21835 fps=365 q=-0.0 size=N/A time=00:15:10.70 bitrate=N/A speed=15.2x    frame=22035 fps=365 q=-0.0 size=N/A time=00:15:19.04 bitrate=N/A speed=15.2x    frame=22239 fps=365 q=-0.0 size=N/A time=00:15:27.55 bitrate=N/A speed=15.2x    frame=22434 fps=365 q=-0.0 size=N/A time=00:15:35.68 bitrate=N/A speed=15.2x    frame=22635 fps=366 q=-0.0 size=N/A time=00:15:44.06 bitrate=N/A speed=15.2x    frame=22825 fps=366 q=-0.0 size=N/A time=00:15:51.99 bitrate=N/A speed=15.3x    frame=23026 fps=366 q=-0.0 size=N/A time=00:16:00.37 bitrate=N/A speed=15.3x    frame=23234 fps=366 q=-0.0 size=N/A time=00:16:09.05 bitrate=N/A speed=15.3x    frame=23430 fps=366 q=-0.0 size=N/A time=00:16:17.22 bitrate=N/A speed=15.3x    frame=23626 fps=366 q=-0.0 size=N/A time=00:16:25.40 bitrate=N/A speed=15.3x    frame=23829 fps=367 q=-0.0 size=N/A time=00:16:33.86 bitrate=N/A speed=15.3x    frame=24025 fps=367 q=-0.0 size=N/A time=00:16:42.04 bitrate=N/A speed=15.3x    frame=24213 fps=367 q=-0.0 size=N/A time=00:16:49.88 bitrate=N/A speed=15.3x    frame=24403 fps=367 q=-0.0 size=N/A time=00:16:57.80 bitrate=N/A speed=15.3x    frame=24606 fps=367 q=-0.0 size=N/A time=00:17:06.27 bitrate=N/A speed=15.3x    frame=24794 fps=367 q=-0.0 size=N/A time=00:17:14.11 bitrate=N/A speed=15.3x    frame=24993 fps=367 q=-0.0 size=N/A time=00:17:22.41 bitrate=N/A speed=15.3x    frame=25179 fps=367 q=-0.0 size=N/A time=00:17:30.17 bitrate=N/A speed=15.3x    frame=25363 fps=367 q=-0.0 size=N/A time=00:17:37.84 bitrate=N/A speed=15.3x    frame=25549 fps=367 q=-0.0 size=N/A time=00:17:45.60 bitrate=N/A speed=15.3x    frame=25746 fps=367 q=-0.0 size=N/A time=00:17:53.82 bitrate=N/A speed=15.3x    frame=25940 fps=367 q=-0.0 size=N/A time=00:18:01.91 bitrate=N/A speed=15.3x    frame=26132 fps=367 q=-0.0 size=N/A time=00:18:09.92 bitrate=N/A speed=15.3x    frame=26322 fps=367 q=-0.0 size=N/A time=00:18:17.84 bitrate=N/A speed=15.3x    frame=26511 fps=367 q=-0.0 size=N/A time=00:18:25.72 bitrate=N/A speed=15.3x    frame=26697 fps=367 q=-0.0 size=N/A time=00:18:33.48 bitrate=N/A speed=15.3x    frame=26894 fps=367 q=-0.0 size=N/A time=00:18:41.70 bitrate=N/A speed=15.3x    frame=27068 fps=367 q=-0.0 size=N/A time=00:18:48.96 bitrate=N/A speed=15.3x    frame=27253 fps=367 q=-0.0 size=N/A time=00:18:56.67 bitrate=N/A speed=15.3x    frame=27449 fps=367 q=-0.0 size=N/A time=00:19:04.85 bitrate=N/A speed=15.3x    frame=27630 fps=367 q=-0.0 size=N/A time=00:19:12.40 bitrate=N/A speed=15.3x    frame=27819 fps=367 q=-0.0 size=N/A time=00:19:20.28 bitrate=N/A speed=15.3x    frame=28003 fps=367 q=-0.0 size=N/A time=00:19:27.95 bitrate=N/A speed=15.3x    frame=28186 fps=367 q=-0.0 size=N/A time=00:19:35.59 bitrate=N/A speed=15.3x    frame=28380 fps=367 q=-0.0 size=N/A time=00:19:43.68 bitrate=N/A speed=15.3x    frame=28566 fps=367 q=-0.0 size=N/A time=00:19:51.44 bitrate=N/A speed=15.3x    frame=28743 fps=366 q=-0.0 size=N/A time=00:19:58.82 bitrate=N/A speed=15.3x    frame=28923 fps=366 q=-0.0 size=N/A time=00:20:06.33 bitrate=N/A speed=15.3x    frame=29097 fps=366 q=-0.0 size=N/A time=00:20:13.58 bitrate=N/A speed=15.3x    frame=29281 fps=366 q=-0.0 size=N/A time=00:20:21.26 bitrate=N/A speed=15.3x    frame=29466 fps=366 q=-0.0 size=N/A time=00:20:28.97 bitrate=N/A speed=15.3x    frame=29641 fps=366 q=-0.0 size=N/A time=00:20:36.27 bitrate=N/A speed=15.3x    frame=29809 fps=366 q=-0.0 size=N/A time=00:20:43.28 bitrate=N/A speed=15.2x    frame=29982 fps=365 q=-0.0 size=N/A time=00:20:50.49 bitrate=N/A speed=15.2x    frame=30160 fps=365 q=-0.0 size=N/A time=00:20:57.92 bitrate=N/A speed=15.2x    frame=30346 fps=365 q=-0.0 size=N/A time=00:21:05.68 bitrate=N/A speed=15.2x    frame=30540 fps=365 q=-0.0 size=N/A time=00:21:13.77 bitrate=N/A speed=15.2x    frame=30735 fps=365 q=-0.0 size=N/A time=00:21:21.90 bitrate=N/A speed=15.2x    frame=30937 fps=365 q=-0.0 size=N/A time=00:21:30.33 bitrate=N/A speed=15.2x    frame=31129 fps=366 q=-0.0 size=N/A time=00:21:38.33 bitrate=N/A speed=15.2x    frame=31321 fps=366 q=-0.0 size=N/A time=00:21:46.34 bitrate=N/A speed=15.2x    frame=31494 fps=365 q=-0.0 size=N/A time=00:21:53.56 bitrate=N/A speed=15.2x    frame=31688 fps=365 q=-0.0 size=N/A time=00:22:01.65 bitrate=N/A speed=15.2x    frame=31878 fps=365 q=-0.0 size=N/A time=00:22:09.57 bitrate=N/A speed=15.2x    frame=32062 fps=365 q=-0.0 size=N/A time=00:22:17.25 bitrate=N/A speed=15.2x    frame=32249 fps=365 q=-0.0 size=N/A time=00:22:25.05 bitrate=N/A speed=15.2x    frame=32443 fps=365 q=-0.0 size=N/A time=00:22:33.14 bitrate=N/A speed=15.2x    frame=32635 fps=365 q=-0.0 size=N/A time=00:22:41.15 bitrate=N/A speed=15.2x    frame=32781 fps=365 q=-0.0 size=N/A time=00:22:47.24 bitrate=N/A speed=15.2x    frame=32952 fps=365 q=-0.0 size=N/A time=00:22:54.37 bitrate=N/A speed=15.2x    frame=33136 fps=365 q=-0.0 size=N/A time=00:23:02.04 bitrate=N/A speed=15.2x    frame=33322 fps=365 q=-0.0 size=N/A time=00:23:09.80 bitrate=N/A speed=15.2x    frame=33492 fps=365 q=-0.0 size=N/A time=00:23:16.89 bitrate=N/A speed=15.2x    frame=33643 fps=364 q=-0.0 size=N/A time=00:23:23.19 bitrate=N/A speed=15.2x    frame=33787 fps=364 q=-0.0 size=N/A time=00:23:29.19 bitrate=N/A speed=15.2x    frame=33919 fps=363 q=-0.0 size=N/A time=00:23:34.70 bitrate=N/A speed=15.1x    frame=34079 fps=363 q=-0.0 size=N/A time=00:23:41.37 bitrate=N/A speed=15.1x    frame=34245 fps=363 q=-0.0 size=N/A time=00:23:48.30 bitrate=N/A speed=15.1x    frame=34377 fps=362 q=-0.0 size=N/A time=00:23:53.80 bitrate=N/A speed=15.1x    frame=34525 fps=362 q=-0.0 size=N/A time=00:23:59.98 bitrate=N/A speed=15.1x    [Parsed_psnr_16 @ 000001a8adf59e40] PSNR y:48.986318 u:50.349853 v:50.396375 average:49.401233 min:37.982639 max:inf
[out#0/null @ 000001a8a0a71d00] video:14903KiB audio:271276KiB subtitle:0KiB other streams:0KiB global headers:0KiB muxing overhead: unknown
frame=34683 fps=362 q=-0.0 Lsize=N/A time=00:24:06.57 bitrate=N/A speed=15.1x    
